<svg xmlns="http://www.w3.org/2000/svg" xmlns:xlink="http://www.w3.org/1999/xlink" xmlns:lucid="lucid" width="981" height="845"><g transform="translate(-289.4999999967581 -519.4999999927239)" lucid:page-tab-id="0_0"><path d="M290 525a5 5 0 0 1 5-5h440a5 5 0 0 1 5 5v606a5 5 0 0 1-5 5H295a5 5 0 0 1-5-5z" fill="#fff"/><path d="M290 592v33h450v-33M290 656v33h450v-33M290 720v33h450v-33M290 784v33h450v-33M290 848v33h450v-33M290 912v33h450v-33M290 976v33h450v-33M290 1040v33h450v-33M290 1104v27a5 5 0 0 0 5 5h440a5 5 0 0 0 5-5v-27" fill="#f2f3f5"/><path d="M290 560v-35a5 5 0 0 1 5-5h440a5 5 0 0 1 5 5v35" fill="#ffe342"/><path d="M290 525a5 5 0 0 1 5-5h440a5 5 0 0 1 5 5v606a5 5 0 0 1-5 5H295a5 5 0 0 1-5-5zM290 560h450M409.02 560v576M601.8 560v576" stroke="#333" fill="none"/><use xlink:href="#a" transform="matrix(1,0,0,1,299.99999999999994,520) translate(0 23.6)"/><use xlink:href="#b" transform="matrix(1,0,0,1,294.99999999999994,562.5) translate(43 17.1)"/><use xlink:href="#c" transform="matrix(1,0,0,1,414.0177313414207,562.5) translate(0 17.1)"/><use xlink:href="#d" transform="matrix(1,0,0,1,606.7883065891097,562.5) translate(0 17.1)"/><use xlink:href="#e" transform="matrix(1,0,0,1,294.99999999999994,594.5) translate(8.099999999999994 17.1)"/><use xlink:href="#f" transform="matrix(1,0,0,1,414.0177313414207,594.5) translate(0 17.1)"/><use xlink:href="#g" transform="matrix(1,0,0,1,606.7883065891097,594.5) translate(0 17.1)"/><use xlink:href="#e" transform="matrix(1,0,0,1,294.99999999999994,626.5) translate(8.099999999999994 17.1)"/><use xlink:href="#h" transform="matrix(1,0,0,1,414.0177313414207,626.5) translate(0 17.1)"/><use xlink:href="#i" transform="matrix(1,0,0,1,606.7883065891097,626.5) translate(0 17.1)"/><use xlink:href="#e" transform="matrix(1,0,0,1,294.99999999999994,658.5) translate(8.099999999999994 17.1)"/><use xlink:href="#j" transform="matrix(1,0,0,1,414.0177313414207,658.5) translate(0 17.1)"/><use xlink:href="#k" transform="matrix(1,0,0,1,606.7883065891097,658.5) translate(0 17.1)"/><use xlink:href="#e" transform="matrix(1,0,0,1,294.99999999999994,690.5) translate(8.099999999999994 17.1)"/><use xlink:href="#l" transform="matrix(1,0,0,1,414.0177313414207,690.5) translate(0 17.1)"/><use xlink:href="#m" transform="matrix(1,0,0,1,606.7883065891097,690.5) translate(0 17.1)"/><use xlink:href="#n" transform="matrix(1,0,0,1,294.99999999999994,722.5) translate(4.124999999999993 17.1)"/><use xlink:href="#o" transform="matrix(1,0,0,1,414.0177313414207,722.5) translate(0 17.1)"/><use xlink:href="#p" transform="matrix(1,0,0,1,606.7883065891097,722.5) translate(0 17.1)"/><use xlink:href="#n" transform="matrix(1,0,0,1,294.99999999999994,754.5) translate(4.124999999999993 17.1)"/><use xlink:href="#q" transform="matrix(1,0,0,1,414.0177313414207,754.5) translate(0 17.1)"/><use xlink:href="#p" transform="matrix(1,0,0,1,606.7883065891097,754.5) translate(0 17.1)"/><use xlink:href="#e" transform="matrix(1,0,0,1,294.99999999999994,786.5) translate(8.099999999999994 17.1)"/><use xlink:href="#r" transform="matrix(1,0,0,1,414.0177313414207,786.5) translate(0 17.1)"/><use xlink:href="#k" transform="matrix(1,0,0,1,606.7883065891097,786.5) translate(0 17.1)"/><use xlink:href="#e" transform="matrix(1,0,0,1,294.99999999999994,818.5) translate(8.099999999999994 17.1)"/><use xlink:href="#s" transform="matrix(1,0,0,1,414.0177313414207,818.5) translate(0 17.1)"/><use xlink:href="#k" transform="matrix(1,0,0,1,606.7883065891097,818.5) translate(0 17.1)"/><use xlink:href="#e" transform="matrix(1,0,0,1,294.99999999999994,850.5) translate(8.099999999999994 17.1)"/><use xlink:href="#t" transform="matrix(1,0,0,1,414.0177313414207,850.5) translate(0 17.1)"/><use xlink:href="#u" transform="matrix(1,0,0,1,606.7883065891097,850.5) translate(0 17.1)"/><use xlink:href="#v" transform="matrix(1,0,0,1,414.0177313414207,882.5) translate(0 17.1)"/><use xlink:href="#u" transform="matrix(1,0,0,1,606.7883065891097,882.5) translate(0 17.1)"/><use xlink:href="#e" transform="matrix(1,0,0,1,294.99999999999994,914.5) translate(8.099999999999994 17.1)"/><use xlink:href="#w" transform="matrix(1,0,0,1,414.0177313414207,914.5) translate(0 17.1)"/><use xlink:href="#u" transform="matrix(1,0,0,1,606.7883065891097,914.5) translate(0 17.1)"/><use xlink:href="#e" transform="matrix(1,0,0,1,294.99999999999994,946.5) translate(8.099999999999994 17.1)"/><use xlink:href="#x" transform="matrix(1,0,0,1,414.0177313414207,946.5) translate(0 17.1)"/><use xlink:href="#u" transform="matrix(1,0,0,1,606.7883065891097,946.5) translate(0 17.1)"/><use xlink:href="#e" transform="matrix(1,0,0,1,294.99999999999994,978.5) translate(8.099999999999994 17.1)"/><use xlink:href="#y" transform="matrix(1,0,0,1,414.0177313414207,978.5) translate(0 17.1)"/><use xlink:href="#m" transform="matrix(1,0,0,1,606.7883065891097,978.5) translate(0 17.1)"/><use xlink:href="#z" transform="matrix(1,0,0,1,294.99999999999994,1010.5) translate(43.525 17.1)"/><use xlink:href="#A" transform="matrix(1,0,0,1,414.0177313414207,1010.5) translate(0 17.1)"/><use xlink:href="#B" transform="matrix(1,0,0,1,606.7883065891097,1010.5) translate(0 17.1)"/><use xlink:href="#n" transform="matrix(1,0,0,1,294.99999999999994,1042.5) translate(4.124999999999993 17.1)"/><use xlink:href="#C" transform="matrix(1,0,0,1,414.0177313414207,1042.5) translate(0 17.1)"/><use xlink:href="#k" transform="matrix(1,0,0,1,606.7883065891097,1042.5) translate(0 17.1)"/><use xlink:href="#n" transform="matrix(1,0,0,1,294.99999999999994,1074.5) translate(4.124999999999993 17.1)"/><use xlink:href="#D" transform="matrix(1,0,0,1,414.0177313414207,1074.5) translate(0 17.1)"/><use xlink:href="#k" transform="matrix(1,0,0,1,606.7883065891097,1074.5) translate(0 17.1)"/><use xlink:href="#n" transform="matrix(1,0,0,1,294.99999999999994,1106.5) translate(4.124999999999993 17.1)"/><use xlink:href="#E" transform="matrix(1,0,0,1,414.0177313414207,1106.5) translate(0 17.1)"/><use xlink:href="#k" transform="matrix(1,0,0,1,606.7883065891097,1106.5) translate(0 17.1)"/><path d="M870 525a5 5 0 0 1 5-5h270a5 5 0 0 1 5 5v94a5 5 0 0 1-5 5H875a5 5 0 0 1-5-5z" fill="#fff"/><path d="M870 592v27a5 5 0 0 0 5 5h270a5 5 0 0 0 5-5v-27" fill="#f2f3f5"/><path d="M870 560v-35a5 5 0 0 1 5-5h270a5 5 0 0 1 5 5v35" fill="#6db1ff"/><path d="M870 525a5 5 0 0 1 5-5h270a5 5 0 0 1 5 5v94a5 5 0 0 1-5 5H875a5 5 0 0 1-5-5zM870 560h280" stroke="#333" fill="none"/><use xlink:href="#F" transform="matrix(1,0,0,1,880.0000000000001,520) translate(0 23.6)"/><use xlink:href="#G" transform="matrix(1,0,0,1,875.0000000000001,562.5) translate(0 17.1)"/><use xlink:href="#H" transform="matrix(1,0,0,1,875.0000000000001,594.5) translate(0 17.1)"/><path d="M760.5 608H793a12 12 0 0 0 12-12v-44a12 12 0 0 1 12-12h13" stroke="#333" fill="none"/><path d="M740.72 598l20 10-20 10" stroke="#333" fill="#fff" fill-opacity="0"/><path d="M740.72 608h20M760.72 618v-20" stroke="#333" fill="#fff"/><path d="M869.28 550l-20-10 20-10" stroke="#333" fill="#fff" fill-opacity="0"/><path d="M869.28 540h-20M849.28 540c0 5.52-4.48 10-10 10-5.53 0-10-4.48-10-10s4.47-10 10-10c5.52 0 10 4.48 10 10" stroke="#333" fill="#fff"/><path d="M870 893a5 5 0 0 1 5-5h270a5 5 0 0 1 5 5v94a5 5 0 0 1-5 5H875a5 5 0 0 1-5-5z" fill="#fff"/><path d="M870 960v27a5 5 0 0 0 5 5h270a5 5 0 0 0 5-5v-27" fill="#f2f3f5"/><path d="M870 928v-35a5 5 0 0 1 5-5h270a5 5 0 0 1 5 5v35" fill="#54c45e"/><path d="M870 893a5 5 0 0 1 5-5h270a5 5 0 0 1 5 5v94a5 5 0 0 1-5 5H875a5 5 0 0 1-5-5zM870 928h280M1010 928v64" stroke="#333" fill="none"/><use xlink:href="#p" transform="matrix(1,0,0,1,880.0000000000001,888) translate(0 23.6)"/><use xlink:href="#I" transform="matrix(1,0,0,1,875.0000000000001,930.5) translate(0 17.1)"/><use xlink:href="#J" transform="matrix(1,0,0,1,1015.0000000000001,930.5) translate(0 17.1)"/><use xlink:href="#K" transform="matrix(1,0,0,1,875.0000000000001,962.5) translate(0 17.1)"/><use xlink:href="#J" transform="matrix(1,0,0,1,1015.0000000000001,962.5) translate(0 17.1)"/><path d="M780 736h13a12 12 0 0 1 12 12v148a12 12 0 0 0 12 12h13" stroke="#333" fill="none"/><path d="M750.5 746v-20M740.5 736h20M780.5 736c0 5.52-4.48 10-10 10s-10-4.48-10-10 4.48-10 10-10 10 4.48 10 10M859.5 898v20M869.5 908h-20M849.5 908c0 5.52-4.48 10-10 10s-10-4.48-10-10 4.48-10 10-10 10 4.48 10 10" stroke="#333" fill="#fff"/><path d="M780 768h13a12 12 0 0 1 12 12v116a12 12 0 0 0 12 12h13" stroke="#333" fill="none"/><path d="M750.5 778v-20M740.5 768h20M780.5 768c0 5.52-4.48 10-10 10s-10-4.48-10-10 4.48-10 10-10 10 4.48 10 10M859.5 898v20M869.5 908h-20M849.5 908c0 5.52-4.48 10-10 10s-10-4.48-10-10 4.48-10 10-10 10 4.48 10 10" stroke="#333" fill="#fff"/><path d="M870 1009a5 5 0 0 1 5-5h390a5 5 0 0 1 5 5v350a5 5 0 0 1-5 5H875a5 5 0 0 1-5-5z" fill="#fff"/><path d="M870 1076v33h400v-33M870 1140v33h400v-33M870 1204v33h400v-33M870 1268v33h400v-33M870 1332v27a5 5 0 0 0 5 5h390a5 5 0 0 0 5-5v-27" fill="#f2f3f5"/><path d="M870 1044v-35a5 5 0 0 1 5-5h390a5 5 0 0 1 5 5v35" fill="#ffe342"/><path d="M870 1009a5 5 0 0 1 5-5h390a5 5 0 0 1 5 5v350a5 5 0 0 1-5 5H875a5 5 0 0 1-5-5zM870 1044h400M983.98 1044v320M1143.46 1044v320" stroke="#333" fill="none"/><use xlink:href="#L" transform="matrix(1,0,0,1,880,1004.0000000000005) translate(0 23.6)"/><use xlink:href="#b" transform="matrix(1,0,0,1,875,1046.5000000000005) translate(40 17.1)"/><use xlink:href="#c" transform="matrix(1,0,0,1,988.9756598207672,1046.5000000000005) translate(0 17.1)"/><use xlink:href="#M" transform="matrix(1,0,0,1,1148.4608961833976,1046.5000000000005) translate(0 17.1)"/><use xlink:href="#z" transform="matrix(1,0,0,1,875,1078.5000000000005) translate(40.525 17.1)"/><use xlink:href="#N" transform="matrix(1,0,0,1,988.9756598207672,1078.5000000000005) translate(0 17.1)"/><use xlink:href="#M" transform="matrix(1,0,0,1,1148.4608961833976,1078.5000000000005) translate(0 17.1)"/><use xlink:href="#O" transform="matrix(1,0,0,1,988.9756598207672,1110.5000000000005) translate(0 17.1)"/><use xlink:href="#J" transform="matrix(1,0,0,1,1148.4608961833976,1110.5000000000005) translate(0 17.1)"/><use xlink:href="#e" transform="matrix(1,0,0,1,875,1142.5000000000005) translate(5.099999999999994 17.1)"/><use xlink:href="#f" transform="matrix(1,0,0,1,988.9756598207672,1142.5000000000005) translate(0 17.1)"/><use xlink:href="#P" transform="matrix(1,0,0,1,1148.4608961833976,1142.5000000000005) translate(0 17.1)"/><use xlink:href="#e" transform="matrix(1,0,0,1,875,1174.5000000000005) translate(5.099999999999994 17.1)"/><use xlink:href="#Q" transform="matrix(1,0,0,1,988.9756598207672,1174.5000000000005) translate(0 17.1)"/><use xlink:href="#R" transform="matrix(1,0,0,1,1148.4608961833976,1174.5000000000005) translate(0 17.1)"/><use xlink:href="#e" transform="matrix(1,0,0,1,875,1206.5000000000005) translate(5.099999999999994 17.1)"/><use xlink:href="#S" transform="matrix(1,0,0,1,988.9756598207672,1206.5000000000005) translate(0 17.1)"/><use xlink:href="#R" transform="matrix(1,0,0,1,1148.4608961833976,1206.5000000000005) translate(0 17.1)"/><use xlink:href="#T" transform="matrix(1,0,0,1,988.9756598207672,1238.5000000000005) translate(0 17.1)"/><use xlink:href="#R" transform="matrix(1,0,0,1,1148.4608961833976,1238.5000000000005) translate(0 17.1)"/><use xlink:href="#e" transform="matrix(1,0,0,1,875,1270.5000000000005) translate(5.099999999999994 17.1)"/><use xlink:href="#U" transform="matrix(1,0,0,1,988.9756598207672,1270.5000000000005) translate(0 17.1)"/><use xlink:href="#J" transform="matrix(1,0,0,1,1148.4608961833976,1270.5000000000005) translate(0 17.1)"/><use xlink:href="#e" transform="matrix(1,0,0,1,875,1302.5000000000005) translate(5.099999999999994 17.1)"/><use xlink:href="#V" transform="matrix(1,0,0,1,988.9756598207672,1302.5000000000005) translate(0 17.1)"/><use xlink:href="#J" transform="matrix(1,0,0,1,1148.4608961833976,1302.5000000000005) translate(0 17.1)"/><use xlink:href="#W" transform="matrix(1,0,0,1,988.9756598207672,1334.5000000000005) translate(0 17.1)"/><use xlink:href="#J" transform="matrix(1,0,0,1,1148.4608961833976,1334.5000000000005) translate(0 17.1)"/><path d="M780 1024h50" stroke="#333" fill="none"/><path d="M740.72 1014l20 10-20 10" stroke="#333" fill="#fff" fill-opacity="0"/><path d="M740.72 1024h20M780.72 1024c0 5.52-4.47 10-10 10-5.52 0-10-4.48-10-10s4.48-10 10-10c5.53 0 10 4.48 10 10M859.5 1014v20M869.5 1024h-20M849.5 1024c0 5.52-4.48 10-10 10s-10-4.48-10-10 4.48-10 10-10 10 4.48 10 10" stroke="#333" fill="#fff"/><path d="M849.5 1156H832a12 12 0 0 1-12-12V549.9a10 10 0 0 1 10-10" stroke="#333" fill="none"/><path d="M859.5 1146v20M869.5 1156h-20M849.5 1146v20" stroke="#333" fill="#fff"/><path d="M869.28 549.9l-20-10 20-10" stroke="#333" fill="#fff" fill-opacity="0"/><path d="M869.28 539.9h-20M849.28 539.9c0 5.5-4.48 10-10 10-5.53 0-10-4.5-10-10 0-5.54 4.47-10 10-10 5.52 0 10 4.46 10 10" stroke="#333" fill="#fff"/><path d="M870 645a5 5 0 0 1 5-5h270a5 5 0 0 1 5 5v222a5 5 0 0 1-5 5H875a5 5 0 0 1-5-5z" fill="#fff"/><path d="M870 712v33h280v-33M870 776v33h280v-33M870 840v27a5 5 0 0 0 5 5h270a5 5 0 0 0 5-5v-27" fill="#f2f3f5"/><path d="M870 680v-35a5 5 0 0 1 5-5h270a5 5 0 0 1 5 5v35" fill="#6db1ff"/><path d="M870 645a5 5 0 0 1 5-5h270a5 5 0 0 1 5 5v222a5 5 0 0 1-5 5H875a5 5 0 0 1-5-5zM870 680h280" stroke="#333" fill="none"/><use xlink:href="#i" transform="matrix(1,0,0,1,880.0000000000001,640) translate(0 23.6)"/><use xlink:href="#X" transform="matrix(1,0,0,1,875.0000000000001,682.5) translate(0 17.1)"/><use xlink:href="#Y" transform="matrix(1,0,0,1,875.0000000000001,714.5) translate(0 17.1)"/><use xlink:href="#Z" transform="matrix(1,0,0,1,875.0000000000001,746.5) translate(0 17.1)"/><use xlink:href="#aa" transform="matrix(1,0,0,1,875.0000000000001,778.5) translate(0 17.1)"/><use xlink:href="#ab" transform="matrix(1,0,0,1,875.0000000000001,810.5) translate(0 17.1)"/><use xlink:href="#ac" transform="matrix(1,0,0,1,875.0000000000001,842.5) translate(0 17.1)"/><path d="M760.5 640h29a10 10 0 0 1 10 10 10 10 0 0 0 10 10H830" stroke="#333" fill="none"/><path d="M750.5 650v-20M740.5 640h20M760.5 650v-20M859.5 650v20M869.5 660h-20M849.5 660c0 5.52-4.48 10-10 10s-10-4.48-10-10 4.48-10 10-10 10 4.48 10 10" stroke="#333" fill="#fff"/><defs><path fill="#333" d="M238-179c0 84-86 86-175 82L45 0H11l48-248c82 0 179-12 179 69zm-34 1c0-53-64-42-116-43l-19 98c63 0 135 9 135-55" id="ad"/><path fill="#333" d="M6 0l50-261h32L37 0H6" id="ae"/><path fill="#333" d="M165-48c-4 18 1 34 23 27l-3 20c-29 8-62 0-52-35h-2C116-14 99 4 63 4 30 4 8-16 8-49c0-68 71-67 138-67 10-26 0-56-31-54-26 1-42 9-47 31l-32-5c8-67 160-71 144 15-5 28-9 54-15 81zM42-50c3 52 80 24 89-6 7-12 7-24 11-38-47 1-103-4-100 44" id="af"/><path fill="#333" d="M44-68c0 29 11 47 38 47 30 0 42-19 51-41l28 9C148-21 126 4 82 4 31 4 10-29 12-85c3-77 74-140 146-93 12 8 15 23 18 40l-31 5c-1-22-13-36-36-36-52 0-65 49-65 101" id="ag"/><path fill="#333" d="M111-194c62-3 86 47 72 106H45c-7 38 6 69 45 68 27-1 43-14 53-32l24 11C152-15 129 4 87 4 38 3 12-23 12-71c0-70 32-119 99-123zm44 81c14-66-71-72-95-28-4 8-8 17-11 28h106" id="ah"/><g id="a"><use transform="matrix(0.05,0,0,0.05,0,0)" xlink:href="#ad"/><use transform="matrix(0.05,0,0,0.05,12,0)" xlink:href="#ae"/><use transform="matrix(0.05,0,0,0.05,15.949999999999998,0)" xlink:href="#af"/><use transform="matrix(0.05,0,0,0.05,25.950000000000003,0)" xlink:href="#ag"/><use transform="matrix(0.05,0,0,0.05,34.95,0)" xlink:href="#ah"/></g><path d="M30-248c87 1 191-15 191 75 0 78-77 80-158 76V0H30v-248zm33 125c57 0 124 11 124-50 0-59-68-47-124-48v98" id="ai"/><path d="M194 0L95-120 63-95V0H30v-248h33v124l119-124h40L117-140 236 0h-42" id="aj"/><g id="b"><use transform="matrix(0.05,0,0,0.05,0,0)" xlink:href="#ai"/><use transform="matrix(0.05,0,0,0.05,12,0)" xlink:href="#aj"/></g><path fill="#333" d="M50-231l6-30h32l-6 30H50zM6 0l37-190h31L37 0H6" id="ak"/><path fill="#333" d="M133-28C103 26-5 8 13-77c13-62 24-115 90-117 29-1 46 15 56 35l19-102h32L160 0h-30zM45-64c-2 27 10 43 35 43 54-1 69-50 69-103 0-29-15-46-42-46-53-1-58 58-62 106" id="al"/><g id="c"><use transform="matrix(0.05,0,0,0.05,0,0)" xlink:href="#ak"/><use transform="matrix(0.05,0,0,0.05,3.95,0)" xlink:href="#al"/></g><path fill="#333" d="M62-99C39-31 123 0 170-40s38-139 58-208h34C234-144 253 4 115 4 49 4 18-43 31-112l26-136h34" id="am"/><path fill="#333" d="M14 0l48-248h34L48 0H14" id="an"/><path fill="#333" d="M248-139C247-14 144 9 11 0l48-248c105-6 190 8 189 109zm-34 0c1-70-52-87-126-82L50-27c98 7 163-21 164-112" id="ao"/><g id="d"><use transform="matrix(0.05,0,0,0.05,0,0)" xlink:href="#am"/><use transform="matrix(0.05,0,0,0.05,12.950000000000001,0)" xlink:href="#am"/><use transform="matrix(0.05,0,0,0.05,25.900000000000002,0)" xlink:href="#an"/><use transform="matrix(0.05,0,0,0.05,30.900000000000002,0)" xlink:href="#ao"/></g><path d="M190 0L58-211 59 0H30v-248h39L202-35l-2-213h31V0h-41" id="ap"/><path d="M140-251c81 0 123 46 123 126C263-46 219 4 140 4 59 4 17-45 17-125s42-126 123-126zm0 227c63 0 89-41 89-101s-29-99-89-99c-61 0-89 39-89 99S79-25 140-24" id="aq"/><path d="M127-220V0H93v-220H8v-28h204v28h-85" id="ar"/><path d="M-5 72V49h209v23H-5" id="as"/><path d="M232-93c-1 65-40 97-104 97C67 4 28-28 28-90v-158h33c8 89-33 224 67 224 102 0 64-133 71-224h33v155" id="at"/><path d="M30 0v-248h33v221h125V0H30" id="au"/><g id="e"><use transform="matrix(0.05,0,0,0.05,0,0)" xlink:href="#ap"/><use transform="matrix(0.05,0,0,0.05,12.950000000000001,0)" xlink:href="#aq"/><use transform="matrix(0.05,0,0,0.05,26.950000000000003,0)" xlink:href="#ar"/><use transform="matrix(0.05,0,0,0.05,37.900000000000006,0)" xlink:href="#as"/><use transform="matrix(0.05,0,0,0.05,47.900000000000006,0)" xlink:href="#ap"/><use transform="matrix(0.05,0,0,0.05,60.85,0)" xlink:href="#at"/><use transform="matrix(0.05,0,0,0.05,73.80000000000001,0)" xlink:href="#au"/><use transform="matrix(0.05,0,0,0.05,83.80000000000001,0)" xlink:href="#au"/></g><path fill="#333" d="M66-151c12-25 30-51 66-40l-6 26C45-176 58-65 38 0H6l36-190h30" id="av"/><path fill="#333" d="M67-158c22-48 132-52 116 29L158 0h-32l25-140c3-38-53-32-70-12C52-117 51-52 38 0H6l36-190h30" id="aw"/><path fill="#333" d="M51-54c-9 22 5 41 31 30L79-1C43 14 10-4 19-52l22-115H19l5-23h22l19-43h21l-9 43h35l-4 23H73" id="ax"/><path fill="#333" d="M151-220L108 0H75l42-220H32l6-28h203l-5 28h-85" id="ay"/><path fill="#333" d="M198-190L69 30C53 58 25 83-20 72c4-11-1-27 19-22 33-1 43-29 59-52L20-190h32L79-34l84-156h35" id="az"/><path fill="#333" d="M67-162c32-53 139-36 121 50C175-51 163 2 97 4 68 4 52-11 42-31 38 6 28 39 22 75H-9l50-265h29c-1 10 0 20-3 28zm89 36c0-26-10-43-35-43-54 0-67 50-69 103-1 29 14 45 42 46 53 0 62-58 62-106" id="aA"/><g id="f"><use transform="matrix(0.05,0,0,0.05,0,0)" xlink:href="#av"/><use transform="matrix(0.05,0,0,0.05,5.95,0)" xlink:href="#ah"/><use transform="matrix(0.05,0,0,0.05,15.949999999999998,0)" xlink:href="#aw"/><use transform="matrix(0.05,0,0,0.05,25.950000000000003,0)" xlink:href="#ax"/><use transform="matrix(0.05,0,0,0.05,30.950000000000003,0)" xlink:href="#ay"/><use transform="matrix(0.05,0,0,0.05,40.55,0)" xlink:href="#az"/><use transform="matrix(0.05,0,0,0.05,49.55,0)" xlink:href="#aA"/><use transform="matrix(0.05,0,0,0.05,59.54999999999999,0)" xlink:href="#ah"/></g><path fill="#333" d="M249-183c0 48-29 72-75 77L221 0h-36l-43-103H65L45 0H11l48-248c83 2 190-17 190 65zm-34 3c0-55-74-39-127-41l-18 92c63-1 145 13 145-51" id="aB"/><path fill="#333" d="M-7 75l65-336h72l-5 23H84L28 52h41l-4 23H-7" id="aC"/><path fill="#333" d="M-30 75l5-23h40l57-290H31l4-23h72L42 75h-72" id="aD"/><g id="g"><use transform="matrix(0.05,0,0,0.05,0,0)" xlink:href="#aB"/><use transform="matrix(0.05,0,0,0.05,12.950000000000001,0)" xlink:href="#ah"/><use transform="matrix(0.05,0,0,0.05,22.950000000000003,0)" xlink:href="#aw"/><use transform="matrix(0.05,0,0,0.05,32.95,0)" xlink:href="#ax"/><use transform="matrix(0.05,0,0,0.05,37.95,0)" xlink:href="#ay"/><use transform="matrix(0.05,0,0,0.05,47.550000000000004,0)" xlink:href="#az"/><use transform="matrix(0.05,0,0,0.05,56.550000000000004,0)" xlink:href="#aA"/><use transform="matrix(0.05,0,0,0.05,66.55000000000001,0)" xlink:href="#ah"/><use transform="matrix(0.05,0,0,0.05,76.55000000000001,0)" xlink:href="#aC"/><use transform="matrix(0.05,0,0,0.05,81.55000000000001,0)" xlink:href="#aD"/></g><path fill="#333" d="M55-144c13 50 104 24 104 88C159 21 15 23 1-39l26-10c6 40 102 42 102-4-13-50-104-23-104-87 0-71 143-71 148-8l-29 4c-5-35-85-37-89 0" id="aE"/><g id="h"><use transform="matrix(0.05,0,0,0.05,0,0)" xlink:href="#aE"/><use transform="matrix(0.05,0,0,0.05,9,0)" xlink:href="#aA"/><use transform="matrix(0.05,0,0,0.05,19,0)" xlink:href="#af"/><use transform="matrix(0.05,0,0,0.05,29,0)" xlink:href="#ag"/><use transform="matrix(0.05,0,0,0.05,38,0)" xlink:href="#ah"/><use transform="matrix(0.05,0,0,0.05,48,0)" xlink:href="#ay"/><use transform="matrix(0.05,0,0,0.05,57.6,0)" xlink:href="#az"/><use transform="matrix(0.05,0,0,0.05,66.6,0)" xlink:href="#aA"/><use transform="matrix(0.05,0,0,0.05,76.6,0)" xlink:href="#ah"/></g><path fill="#333" d="M194-120c59 52 2 134-86 124-53-6-90-18-98-63l31-7c8 30 29 43 70 43 46 0 84-17 71-62-32-43-135-20-137-98-3-89 178-90 191-16l-30 9c-8-48-127-53-127 5 0 53 81 35 115 65" id="aF"/><g id="i"><use transform="matrix(0.05,0,0,0.05,0,0)" xlink:href="#aF"/><use transform="matrix(0.05,0,0,0.05,12,0)" xlink:href="#aA"/><use transform="matrix(0.05,0,0,0.05,22,0)" xlink:href="#af"/><use transform="matrix(0.05,0,0,0.05,32,0)" xlink:href="#ag"/><use transform="matrix(0.05,0,0,0.05,41,0)" xlink:href="#ah"/><use transform="matrix(0.05,0,0,0.05,51,0)" xlink:href="#ay"/><use transform="matrix(0.05,0,0,0.05,60.6,0)" xlink:href="#az"/><use transform="matrix(0.05,0,0,0.05,69.6,0)" xlink:href="#aA"/><use transform="matrix(0.05,0,0,0.05,79.6,0)" xlink:href="#ah"/></g><g id="j"><use transform="matrix(0.05,0,0,0.05,0,0)" xlink:href="#af"/><use transform="matrix(0.05,0,0,0.05,10,0)" xlink:href="#av"/><use transform="matrix(0.05,0,0,0.05,15.949999999999998,0)" xlink:href="#ah"/><use transform="matrix(0.05,0,0,0.05,25.950000000000003,0)" xlink:href="#af"/></g><g id="k"><use transform="matrix(0.05,0,0,0.05,0,0)" xlink:href="#av"/><use transform="matrix(0.05,0,0,0.05,5.95,0)" xlink:href="#ah"/><use transform="matrix(0.05,0,0,0.05,15.949999999999998,0)" xlink:href="#af"/><use transform="matrix(0.05,0,0,0.05,25.950000000000003,0)" xlink:href="#ae"/></g><path fill="#333" d="M76-167L44 0H12l33-167H18l4-23h27c3-47 25-81 82-69l-4 24c-35-8-44 15-46 45h37l-5 23H76" id="aG"/><path fill="#333" d="M30-147c31-64 166-65 159 27C183-49 158 1 86 4 9 8 1-88 30-147zM88-20c53 0 68-48 68-100 0-31-11-51-44-50-52 1-68 46-68 97 0 32 13 53 44 53" id="aH"/><g id="l"><use transform="matrix(0.05,0,0,0.05,0,0)" xlink:href="#aG"/><use transform="matrix(0.05,0,0,0.05,5,0)" xlink:href="#ae"/><use transform="matrix(0.05,0,0,0.05,8.95,0)" xlink:href="#aH"/><use transform="matrix(0.05,0,0,0.05,18.95,0)" xlink:href="#aH"/><use transform="matrix(0.05,0,0,0.05,28.950000000000003,0)" xlink:href="#av"/></g><path fill="#333" d="M103-194c29 0 47 14 56 36 2-11 5-23 8-32h30L160-5C157 61 82 97 21 62 9 55 4 45 1 30l28-7c7 42 83 31 92-3 4-16 9-38 13-55-13 20-29 36-62 36-40 0-60-25-60-64 0-71 23-131 91-131zm4 24c-53 0-58 54-61 104-2 27 10 44 36 44 49 0 65-50 67-102 1-29-15-46-42-46" id="aI"/><g id="m"><use transform="matrix(0.05,0,0,0.05,0,0)" xlink:href="#ak"/><use transform="matrix(0.05,0,0,0.05,3.95,0)" xlink:href="#aw"/><use transform="matrix(0.05,0,0,0.05,13.949999999999998,0)" xlink:href="#ax"/><use transform="matrix(0.05,0,0,0.05,18.95,0)" xlink:href="#ah"/><use transform="matrix(0.05,0,0,0.05,28.950000000000003,0)" xlink:href="#aI"/><use transform="matrix(0.05,0,0,0.05,38.95,0)" xlink:href="#ah"/><use transform="matrix(0.05,0,0,0.05,48.95,0)" xlink:href="#av"/></g><path d="M233-177c-1 41-23 64-60 70L243 0h-38l-65-103H63V0H30v-248c88 3 205-21 203 71zM63-129c60-2 137 13 137-47 0-61-80-42-137-45v92" id="aJ"/><path d="M205 0l-28-72H64L36 0H1l101-248h38L239 0h-34zm-38-99l-47-123c-12 45-31 82-46 123h93" id="aK"/><path d="M185-189c-5-48-123-54-124 2 14 75 158 14 163 119 3 78-121 87-175 55-17-10-28-26-33-46l33-7c5 56 141 63 141-1 0-78-155-14-162-118-5-82 145-84 179-34 5 7 8 16 11 25" id="aL"/><path d="M33 0v-248h34V0H33" id="aM"/><path d="M30 0v-248h187v28H63v79h144v27H63v87h162V0H30" id="aN"/><g id="n"><use transform="matrix(0.05,0,0,0.05,0,0)" xlink:href="#ar"/><use transform="matrix(0.05,0,0,0.05,10.950000000000001,0)" xlink:href="#aJ"/><use transform="matrix(0.05,0,0,0.05,23.900000000000002,0)" xlink:href="#aK"/><use transform="matrix(0.05,0,0,0.05,35.900000000000006,0)" xlink:href="#ap"/><use transform="matrix(0.05,0,0,0.05,48.85000000000001,0)" xlink:href="#aL"/><use transform="matrix(0.05,0,0,0.05,60.85,0)" xlink:href="#aM"/><use transform="matrix(0.05,0,0,0.05,65.85000000000001,0)" xlink:href="#aN"/><use transform="matrix(0.05,0,0,0.05,77.85000000000001,0)" xlink:href="#ap"/><use transform="matrix(0.05,0,0,0.05,90.80000000000001,0)" xlink:href="#ar"/></g><path fill="#333" d="M67-158c15-20 31-36 64-36 94 0 33 127 27 194h-32l25-140c3-38-53-32-70-12C52-117 51-51 37 0H6l51-261h31" id="aO"/><path fill="#333" d="M248-111c6-24 9-61-24-58-72 9-57 108-77 169h-31l26-142c3-37-50-30-64-10C52-115 50-51 37 0H6l36-190h30c-1 10-6 24-4 32 13-43 101-52 105 5 13-22 29-41 61-41 90 0 28 129 23 194h-31" id="aP"/><g id="o"><use transform="matrix(0.05,0,0,0.05,0,0)" xlink:href="#aE"/><use transform="matrix(0.05,0,0,0.05,9,0)" xlink:href="#aO"/><use transform="matrix(0.05,0,0,0.05,19,0)" xlink:href="#aH"/><use transform="matrix(0.05,0,0,0.05,29,0)" xlink:href="#av"/><use transform="matrix(0.05,0,0,0.05,34.95,0)" xlink:href="#ax"/><use transform="matrix(0.05,0,0,0.05,39.95,0)" xlink:href="#ay"/><use transform="matrix(0.05,0,0,0.05,49.25000000000001,0)" xlink:href="#ah"/><use transform="matrix(0.05,0,0,0.05,59.25,0)" xlink:href="#av"/><use transform="matrix(0.05,0,0,0.05,65.2,0)" xlink:href="#aP"/><use transform="matrix(0.05,0,0,0.05,80.15,0)" xlink:href="#ad"/><use transform="matrix(0.05,0,0,0.05,92.15,0)" xlink:href="#av"/><use transform="matrix(0.05,0,0,0.05,98.10000000000001,0)" xlink:href="#ak"/><use transform="matrix(0.05,0,0,0.05,102.05000000000001,0)" xlink:href="#ag"/><use transform="matrix(0.05,0,0,0.05,111.05000000000001,0)" xlink:href="#ah"/><use transform="matrix(0.05,0,0,0.05,121.05000000000001,0)" xlink:href="#aE"/></g><g id="p"><use transform="matrix(0.05,0,0,0.05,0,0)" xlink:href="#aB"/><use transform="matrix(0.05,0,0,0.05,12.950000000000001,0)" xlink:href="#ah"/><use transform="matrix(0.05,0,0,0.05,22.950000000000003,0)" xlink:href="#aw"/><use transform="matrix(0.05,0,0,0.05,32.95,0)" xlink:href="#ax"/><use transform="matrix(0.05,0,0,0.05,37.95,0)" xlink:href="#ad"/><use transform="matrix(0.05,0,0,0.05,49.95,0)" xlink:href="#av"/><use transform="matrix(0.05,0,0,0.05,55.900000000000006,0)" xlink:href="#ak"/><use transform="matrix(0.05,0,0,0.05,59.85,0)" xlink:href="#ag"/><use transform="matrix(0.05,0,0,0.05,68.85000000000001,0)" xlink:href="#ah"/></g><g id="q"><use transform="matrix(0.05,0,0,0.05,0,0)" xlink:href="#ae"/><use transform="matrix(0.05,0,0,0.05,3.95,0)" xlink:href="#aH"/><use transform="matrix(0.05,0,0,0.05,13.949999999999998,0)" xlink:href="#aw"/><use transform="matrix(0.05,0,0,0.05,23.95,0)" xlink:href="#aI"/><use transform="matrix(0.05,0,0,0.05,33.95,0)" xlink:href="#ay"/><use transform="matrix(0.05,0,0,0.05,43.25000000000001,0)" xlink:href="#ah"/><use transform="matrix(0.05,0,0,0.05,53.25,0)" xlink:href="#av"/><use transform="matrix(0.05,0,0,0.05,59.20000000000002,0)" xlink:href="#aP"/><use transform="matrix(0.05,0,0,0.05,74.15,0)" xlink:href="#ad"/><use transform="matrix(0.05,0,0,0.05,86.15,0)" xlink:href="#av"/><use transform="matrix(0.05,0,0,0.05,92.10000000000001,0)" xlink:href="#ak"/><use transform="matrix(0.05,0,0,0.05,96.05000000000001,0)" xlink:href="#ag"/><use transform="matrix(0.05,0,0,0.05,105.05000000000001,0)" xlink:href="#ah"/><use transform="matrix(0.05,0,0,0.05,115.05000000000001,0)" xlink:href="#aE"/></g><path fill="#333" d="M67 3c-93-2-31-127-26-193h32L48-50c-3 39 53 32 70 12 30-34 30-101 43-152h32L157 0h-30c1-10 6-24 4-33-14 20-29 37-64 36" id="aQ"/><g id="r"><use transform="matrix(0.05,0,0,0.05,0,0)" xlink:href="#ae"/><use transform="matrix(0.05,0,0,0.05,3.95,0)" xlink:href="#af"/><use transform="matrix(0.05,0,0,0.05,13.949999999999998,0)" xlink:href="#ax"/><use transform="matrix(0.05,0,0,0.05,18.95,0)" xlink:href="#ak"/><use transform="matrix(0.05,0,0,0.05,22.9,0)" xlink:href="#ax"/><use transform="matrix(0.05,0,0,0.05,27.899999999999995,0)" xlink:href="#aQ"/><use transform="matrix(0.05,0,0,0.05,37.9,0)" xlink:href="#al"/><use transform="matrix(0.05,0,0,0.05,47.9,0)" xlink:href="#ah"/></g><g id="s"><use transform="matrix(0.05,0,0,0.05,0,0)" xlink:href="#ae"/><use transform="matrix(0.05,0,0,0.05,3.95,0)" xlink:href="#aH"/><use transform="matrix(0.05,0,0,0.05,13.949999999999998,0)" xlink:href="#aw"/><use transform="matrix(0.05,0,0,0.05,23.95,0)" xlink:href="#aI"/><use transform="matrix(0.05,0,0,0.05,33.95,0)" xlink:href="#ak"/><use transform="matrix(0.05,0,0,0.05,37.900000000000006,0)" xlink:href="#ax"/><use transform="matrix(0.05,0,0,0.05,42.900000000000006,0)" xlink:href="#aQ"/><use transform="matrix(0.05,0,0,0.05,52.900000000000006,0)" xlink:href="#al"/><use transform="matrix(0.05,0,0,0.05,62.900000000000006,0)" xlink:href="#ah"/></g><g id="t"><use transform="matrix(0.05,0,0,0.05,0,0)" xlink:href="#ag"/><use transform="matrix(0.05,0,0,0.05,9,0)" xlink:href="#aH"/><use transform="matrix(0.05,0,0,0.05,19,0)" xlink:href="#aQ"/><use transform="matrix(0.05,0,0,0.05,29,0)" xlink:href="#aw"/><use transform="matrix(0.05,0,0,0.05,39,0)" xlink:href="#ax"/><use transform="matrix(0.05,0,0,0.05,44,0)" xlink:href="#av"/><use transform="matrix(0.05,0,0,0.05,49.95,0)" xlink:href="#az"/></g><path fill="#333" d="M89 0H52L20-190h33L74-25l89-165h34" id="aR"/><path fill="#333" d="M17-49c1-102 45-165 103-212h30C92-210 49-145 49-46 49 4 63 43 85 75H54C30 43 18 2 17-49" id="aS"/><path fill="#333" d="M123-251c66 0 92 69 53 113C138-94 73-75 39-27h128l-5 27H-2c17-92 123-93 159-163 14-28-1-64-36-62-29 2-46 17-54 41l-30-6c13-36 37-61 86-61" id="aT"/><path fill="#333" d="M151-85c6-55-69-56-94-29H26l34-134h141l-5 27H84l-20 79c41-34 127-11 121 53C199 13 30 38 8-54l29-8C52 0 159-13 151-85" id="aU"/><path fill="#333" d="M98-137C97-35 54 29-4 75h-31C23 23 67-41 67-140c0-50-15-89-37-121h31c24 32 36 73 37 124" id="aV"/><g id="u"><use transform="matrix(0.05,0,0,0.05,0,0)" xlink:href="#aR"/><use transform="matrix(0.05,0,0,0.05,9,0)" xlink:href="#af"/><use transform="matrix(0.05,0,0,0.05,19,0)" xlink:href="#av"/><use transform="matrix(0.05,0,0,0.05,24.95,0)" xlink:href="#ag"/><use transform="matrix(0.05,0,0,0.05,33.95,0)" xlink:href="#aO"/><use transform="matrix(0.05,0,0,0.05,43.95,0)" xlink:href="#af"/><use transform="matrix(0.05,0,0,0.05,53.95,0)" xlink:href="#av"/><use transform="matrix(0.05,0,0,0.05,59.900000000000006,0)" xlink:href="#aS"/><use transform="matrix(0.05,0,0,0.05,65.85000000000001,0)" xlink:href="#aT"/><use transform="matrix(0.05,0,0,0.05,75.85000000000001,0)" xlink:href="#aU"/><use transform="matrix(0.05,0,0,0.05,85.85000000000001,0)" xlink:href="#aU"/><use transform="matrix(0.05,0,0,0.05,95.85000000000001,0)" xlink:href="#aV"/></g><g id="v"><use transform="matrix(0.05,0,0,0.05,0,0)" xlink:href="#aE"/><use transform="matrix(0.05,0,0,0.05,9,0)" xlink:href="#ax"/><use transform="matrix(0.05,0,0,0.05,14,0)" xlink:href="#af"/><use transform="matrix(0.05,0,0,0.05,24,0)" xlink:href="#ax"/><use transform="matrix(0.05,0,0,0.05,29,0)" xlink:href="#ah"/></g><g id="w"><use transform="matrix(0.05,0,0,0.05,0,0)" xlink:href="#ag"/><use transform="matrix(0.05,0,0,0.05,9,0)" xlink:href="#ak"/><use transform="matrix(0.05,0,0,0.05,12.949999999999998,0)" xlink:href="#ax"/><use transform="matrix(0.05,0,0,0.05,17.95,0)" xlink:href="#az"/></g><g id="x"><use transform="matrix(0.05,0,0,0.05,0,0)" xlink:href="#av"/><use transform="matrix(0.05,0,0,0.05,5.95,0)" xlink:href="#aH"/><use transform="matrix(0.05,0,0,0.05,15.949999999999998,0)" xlink:href="#af"/><use transform="matrix(0.05,0,0,0.05,25.950000000000003,0)" xlink:href="#al"/></g><path fill="#333" d="M173 0L80-213 41 0H11l48-248h37l94 214 40-214h30L212 0h-39" id="aW"/><path fill="#333" d="M68-162c25-46 127-43 121 31C183-60 169 1 98 4 69 5 53-11 43-31L36 0H5l52-261h31zm88 36c2-27-9-43-34-43-55 0-70 51-70 103 0 29 15 45 43 46 52 0 58-58 61-106" id="aX"/><g id="y"><use transform="matrix(0.05,0,0,0.05,0,0)" xlink:href="#aO"/><use transform="matrix(0.05,0,0,0.05,10,0)" xlink:href="#aH"/><use transform="matrix(0.05,0,0,0.05,20,0)" xlink:href="#aQ"/><use transform="matrix(0.05,0,0,0.05,30,0)" xlink:href="#aE"/><use transform="matrix(0.05,0,0,0.05,39,0)" xlink:href="#ah"/><use transform="matrix(0.05,0,0,0.05,49,0)" xlink:href="#aW"/><use transform="matrix(0.05,0,0,0.05,61.95,0)" xlink:href="#aQ"/><use transform="matrix(0.05,0,0,0.05,71.95,0)" xlink:href="#aP"/><use transform="matrix(0.05,0,0,0.05,86.9,0)" xlink:href="#aX"/><use transform="matrix(0.05,0,0,0.05,96.9,0)" xlink:href="#ah"/><use transform="matrix(0.05,0,0,0.05,106.9,0)" xlink:href="#av"/></g><path d="M63-220v92h138v28H63V0H30v-248h175v28H63" id="aY"/><g id="z"><use transform="matrix(0.05,0,0,0.05,0,0)" xlink:href="#aY"/><use transform="matrix(0.05,0,0,0.05,10.950000000000001,0)" xlink:href="#aj"/></g><g id="A"><use transform="matrix(0.05,0,0,0.05,0,0)" xlink:href="#av"/><use transform="matrix(0.05,0,0,0.05,5.95,0)" xlink:href="#af"/><use transform="matrix(0.05,0,0,0.05,15.949999999999998,0)" xlink:href="#ax"/><use transform="matrix(0.05,0,0,0.05,20.95,0)" xlink:href="#ak"/><use transform="matrix(0.05,0,0,0.05,24.9,0)" xlink:href="#aw"/><use transform="matrix(0.05,0,0,0.05,34.9,0)" xlink:href="#aI"/><use transform="matrix(0.05,0,0,0.05,44.9,0)" xlink:href="#aE"/></g><g id="B"><use transform="matrix(0.05,0,0,0.05,0,0)" xlink:href="#aB"/><use transform="matrix(0.05,0,0,0.05,12.950000000000001,0)" xlink:href="#af"/><use transform="matrix(0.05,0,0,0.05,22.950000000000003,0)" xlink:href="#ax"/><use transform="matrix(0.05,0,0,0.05,27.950000000000003,0)" xlink:href="#ak"/><use transform="matrix(0.05,0,0,0.05,31.900000000000002,0)" xlink:href="#aw"/><use transform="matrix(0.05,0,0,0.05,41.900000000000006,0)" xlink:href="#aI"/><use transform="matrix(0.05,0,0,0.05,51.900000000000006,0)" xlink:href="#aC"/><use transform="matrix(0.05,0,0,0.05,56.900000000000006,0)" xlink:href="#aD"/></g><g id="C"><use transform="matrix(0.05,0,0,0.05,0,0)" xlink:href="#af"/><use transform="matrix(0.05,0,0,0.05,10,0)" xlink:href="#aR"/><use transform="matrix(0.05,0,0,0.05,19,0)" xlink:href="#aI"/><use transform="matrix(0.05,0,0,0.05,29,0)" xlink:href="#ad"/><use transform="matrix(0.05,0,0,0.05,41,0)" xlink:href="#ae"/><use transform="matrix(0.05,0,0,0.05,44.95,0)" xlink:href="#af"/><use transform="matrix(0.05,0,0,0.05,54.95,0)" xlink:href="#ag"/><use transform="matrix(0.05,0,0,0.05,63.95,0)" xlink:href="#ah"/><use transform="matrix(0.05,0,0,0.05,73.95,0)" xlink:href="#aB"/><use transform="matrix(0.05,0,0,0.05,86.9,0)" xlink:href="#af"/><use transform="matrix(0.05,0,0,0.05,96.9,0)" xlink:href="#ax"/><use transform="matrix(0.05,0,0,0.05,101.9,0)" xlink:href="#ak"/><use transform="matrix(0.05,0,0,0.05,105.85000000000001,0)" xlink:href="#aw"/><use transform="matrix(0.05,0,0,0.05,115.85000000000001,0)" xlink:href="#aI"/></g><path fill="#333" d="M11 0l48-248h34L50-27h125l-5 27H11" id="aZ"/><g id="D"><use transform="matrix(0.05,0,0,0.05,0,0)" xlink:href="#af"/><use transform="matrix(0.05,0,0,0.05,10,0)" xlink:href="#aR"/><use transform="matrix(0.05,0,0,0.05,19,0)" xlink:href="#aI"/><use transform="matrix(0.05,0,0,0.05,29,0)" xlink:href="#aZ"/><use transform="matrix(0.05,0,0,0.05,39,0)" xlink:href="#af"/><use transform="matrix(0.05,0,0,0.05,49,0)" xlink:href="#aw"/><use transform="matrix(0.05,0,0,0.05,59,0)" xlink:href="#al"/><use transform="matrix(0.05,0,0,0.05,69,0)" xlink:href="#ae"/><use transform="matrix(0.05,0,0,0.05,72.95,0)" xlink:href="#aH"/><use transform="matrix(0.05,0,0,0.05,82.95,0)" xlink:href="#av"/><use transform="matrix(0.05,0,0,0.05,88.9,0)" xlink:href="#al"/><use transform="matrix(0.05,0,0,0.05,98.9,0)" xlink:href="#aB"/><use transform="matrix(0.05,0,0,0.05,111.85000000000001,0)" xlink:href="#af"/><use transform="matrix(0.05,0,0,0.05,121.85000000000001,0)" xlink:href="#ax"/><use transform="matrix(0.05,0,0,0.05,126.85000000000001,0)" xlink:href="#ak"/><use transform="matrix(0.05,0,0,0.05,130.8,0)" xlink:href="#aw"/><use transform="matrix(0.05,0,0,0.05,140.8,0)" xlink:href="#aI"/></g><g id="E"><use transform="matrix(0.05,0,0,0.05,0,0)" xlink:href="#af"/><use transform="matrix(0.05,0,0,0.05,10,0)" xlink:href="#aR"/><use transform="matrix(0.05,0,0,0.05,19,0)" xlink:href="#aI"/><use transform="matrix(0.05,0,0,0.05,29,0)" xlink:href="#aW"/><use transform="matrix(0.05,0,0,0.05,41.95,0)" xlink:href="#ah"/><use transform="matrix(0.05,0,0,0.05,51.95,0)" xlink:href="#ak"/><use transform="matrix(0.05,0,0,0.05,55.900000000000006,0)" xlink:href="#aI"/><use transform="matrix(0.05,0,0,0.05,65.9,0)" xlink:href="#aO"/><use transform="matrix(0.05,0,0,0.05,75.9,0)" xlink:href="#aX"/><use transform="matrix(0.05,0,0,0.05,85.9,0)" xlink:href="#aH"/><use transform="matrix(0.05,0,0,0.05,95.9,0)" xlink:href="#av"/><use transform="matrix(0.05,0,0,0.05,101.85000000000001,0)" xlink:href="#aB"/><use transform="matrix(0.05,0,0,0.05,114.80000000000001,0)" xlink:href="#af"/><use transform="matrix(0.05,0,0,0.05,124.80000000000001,0)" xlink:href="#ax"/><use transform="matrix(0.05,0,0,0.05,129.8,0)" xlink:href="#ak"/><use transform="matrix(0.05,0,0,0.05,133.75,0)" xlink:href="#aw"/><use transform="matrix(0.05,0,0,0.05,143.75,0)" xlink:href="#aI"/></g><g id="F"><use transform="matrix(0.05,0,0,0.05,0,0)" xlink:href="#aB"/><use transform="matrix(0.05,0,0,0.05,12.950000000000001,0)" xlink:href="#ah"/><use transform="matrix(0.05,0,0,0.05,22.950000000000003,0)" xlink:href="#aw"/><use transform="matrix(0.05,0,0,0.05,32.95,0)" xlink:href="#ax"/><use transform="matrix(0.05,0,0,0.05,37.95,0)" xlink:href="#ay"/><use transform="matrix(0.05,0,0,0.05,47.550000000000004,0)" xlink:href="#az"/><use transform="matrix(0.05,0,0,0.05,56.550000000000004,0)" xlink:href="#aA"/><use transform="matrix(0.05,0,0,0.05,66.55000000000001,0)" xlink:href="#ah"/></g><path fill="#333" d="M179 0l23-115H67L45 0H11l48-248h34L72-143h135l21-105h32L212 0h-33" id="ba"/><path fill="#333" d="M20-101c0-91 52-143 145-150 126-9 127 168 53 223-23 17-55 32-93 32C57 4 20-33 20-101zm216-33c5-57-18-91-73-90-77 1-110 51-110 125 0 49 23 75 73 75 72-1 104-45 110-110" id="bb"/><path fill="#333" d="M-28 44V31h207v13H-28" id="bc"/><path fill="#333" d="M11 0l48-248h184l-5 28H87l-15 79h140l-5 27H67L50-27h158l-5 27H11" id="bd"/><path fill="#333" d="M222 0l43-216c-8 16-17 34-26 49L143 0h-22L81-216 41 0H11l48-248h42l38 208 116-208h45L252 0h-30" id="be"/><g id="G"><use transform="matrix(0.05,0,0,0.05,0,0)" xlink:href="#aF"/><use transform="matrix(0.05,0,0,0.05,12,0)" xlink:href="#ba"/><use transform="matrix(0.05,0,0,0.05,24.950000000000003,0)" xlink:href="#bb"/><use transform="matrix(0.05,0,0,0.05,38.95,0)" xlink:href="#aB"/><use transform="matrix(0.05,0,0,0.05,51.550000000000004,0)" xlink:href="#ay"/><use transform="matrix(0.05,0,0,0.05,62.5,0)" xlink:href="#bc"/><use transform="matrix(0.05,0,0,0.05,72.5,0)" xlink:href="#ay"/><use transform="matrix(0.05,0,0,0.05,83.45,0)" xlink:href="#bd"/><use transform="matrix(0.05,0,0,0.05,95.45,0)" xlink:href="#aB"/><use transform="matrix(0.05,0,0,0.05,108.4,0)" xlink:href="#be"/></g><path fill="#333" d="M52-101C46-14 166-7 216-51l9-45h-74l6-28h105l-18 87C217-12 181 4 130 4 60 4 18-31 18-101c0-106 78-167 188-146 30 6 48 27 59 54l-34 9c-10-26-31-41-67-40-75 1-107 50-112 123" id="bf"/><g id="H"><use transform="matrix(0.05,0,0,0.05,0,0)" xlink:href="#aZ"/><use transform="matrix(0.05,0,0,0.05,10,0)" xlink:href="#bb"/><use transform="matrix(0.05,0,0,0.05,24,0)" xlink:href="#aW"/><use transform="matrix(0.05,0,0,0.05,36.95,0)" xlink:href="#bf"/><use transform="matrix(0.05,0,0,0.05,50.95,0)" xlink:href="#bc"/><use transform="matrix(0.05,0,0,0.05,60.95,0)" xlink:href="#ay"/><use transform="matrix(0.05,0,0,0.05,71.9,0)" xlink:href="#bd"/><use transform="matrix(0.05,0,0,0.05,83.9,0)" xlink:href="#aB"/><use transform="matrix(0.05,0,0,0.05,96.85000000000001,0)" xlink:href="#be"/></g><g id="I"><use transform="matrix(0.05,0,0,0.05,0,0)" xlink:href="#aP"/><use transform="matrix(0.05,0,0,0.05,14.950000000000001,0)" xlink:href="#ak"/><use transform="matrix(0.05,0,0,0.05,18.900000000000002,0)" xlink:href="#aw"/></g><path d="M24-231v-30h32v30H24zM24 0v-190h32V0H24" id="bg"/><path d="M117-194c89-4 53 116 60 194h-32v-121c0-31-8-49-39-48C34-167 62-67 57 0H25l-1-190h30c1 10-1 24 2 32 11-22 29-35 61-36" id="bh"/><path d="M59-47c-2 24 18 29 38 22v24C64 9 27 4 27-40v-127H5v-23h24l9-43h21v43h35v23H59v120" id="bi"/><path d="M100-194c63 0 86 42 84 106H49c0 40 14 67 53 68 26 1 43-12 49-29l28 8c-11 28-37 45-77 45C44 4 14-33 15-96c1-61 26-98 85-98zm52 81c6-60-76-77-97-28-3 7-6 17-6 28h103" id="bj"/><path d="M177-190C167-65 218 103 67 71c-23-6-38-20-44-43l32-5c15 47 100 32 89-28v-30C133-14 115 1 83 1 29 1 15-40 15-95c0-56 16-97 71-98 29-1 48 16 59 35 1-10 0-23 2-32h30zM94-22c36 0 50-32 50-73 0-42-14-75-50-75-39 0-46 34-46 75s6 73 46 73" id="bk"/><path d="M114-163C36-179 61-72 57 0H25l-1-190h30c1 12-1 29 2 39 6-27 23-49 58-41v29" id="bl"/><g id="J"><use transform="matrix(0.05,0,0,0.05,0,0)" xlink:href="#bg"/><use transform="matrix(0.05,0,0,0.05,3.95,0)" xlink:href="#bh"/><use transform="matrix(0.05,0,0,0.05,13.949999999999998,0)" xlink:href="#bi"/><use transform="matrix(0.05,0,0,0.05,18.95,0)" xlink:href="#bj"/><use transform="matrix(0.05,0,0,0.05,28.950000000000003,0)" xlink:href="#bk"/><use transform="matrix(0.05,0,0,0.05,38.95,0)" xlink:href="#bj"/><use transform="matrix(0.05,0,0,0.05,48.95,0)" xlink:href="#bl"/></g><path fill="#333" d="M124 0L87-78 21 0h-35l86-98-46-92h33l34 74 61-74h37l-83 92 50 98h-34" id="bm"/><g id="K"><use transform="matrix(0.05,0,0,0.05,0,0)" xlink:href="#aP"/><use transform="matrix(0.05,0,0,0.05,14.950000000000001,0)" xlink:href="#af"/><use transform="matrix(0.05,0,0,0.05,24.950000000000003,0)" xlink:href="#bm"/></g><g id="L"><use transform="matrix(0.05,0,0,0.05,0,0)" xlink:href="#aB"/><use transform="matrix(0.05,0,0,0.05,12.950000000000001,0)" xlink:href="#af"/><use transform="matrix(0.05,0,0,0.05,22.950000000000003,0)" xlink:href="#ax"/><use transform="matrix(0.05,0,0,0.05,27.950000000000003,0)" xlink:href="#ak"/><use transform="matrix(0.05,0,0,0.05,31.900000000000002,0)" xlink:href="#aw"/><use transform="matrix(0.05,0,0,0.05,41.900000000000006,0)" xlink:href="#aI"/></g><path d="M30-248c118-7 216 8 213 122C240-48 200 0 122 0H30v-248zM63-27c89 8 146-16 146-99s-60-101-146-95v194" id="bn"/><g id="M"><use transform="matrix(0.05,0,0,0.05,0,0)" xlink:href="#at"/><use transform="matrix(0.05,0,0,0.05,12.950000000000001,0)" xlink:href="#at"/><use transform="matrix(0.05,0,0,0.05,25.900000000000002,0)" xlink:href="#aM"/><use transform="matrix(0.05,0,0,0.05,30.900000000000002,0)" xlink:href="#bn"/></g><g id="N"><use transform="matrix(0.05,0,0,0.05,0,0)" xlink:href="#aQ"/><use transform="matrix(0.05,0,0,0.05,10,0)" xlink:href="#aE"/><use transform="matrix(0.05,0,0,0.05,19,0)" xlink:href="#ah"/><use transform="matrix(0.05,0,0,0.05,29,0)" xlink:href="#av"/></g><g id="O"><use transform="matrix(0.05,0,0,0.05,0,0)" xlink:href="#aA"/><use transform="matrix(0.05,0,0,0.05,10,0)" xlink:href="#av"/><use transform="matrix(0.05,0,0,0.05,15.949999999999998,0)" xlink:href="#ak"/><use transform="matrix(0.05,0,0,0.05,19.9,0)" xlink:href="#ag"/><use transform="matrix(0.05,0,0,0.05,28.899999999999995,0)" xlink:href="#ah"/></g><path d="M179-190L93 31C79 59 56 82 12 73V49c39 6 53-20 64-50L1-190h34L92-34l54-156h33" id="bo"/><path d="M115-194c55 1 70 41 70 98S169 2 115 4C84 4 66-9 55-30l1 105H24l-1-265h31l2 30c10-21 28-34 59-34zm-8 174c40 0 45-34 45-75s-6-73-45-74c-42 0-51 32-51 76 0 43 10 73 51 73" id="bp"/><g id="P"><use transform="matrix(0.05,0,0,0.05,0,0)" xlink:href="#aJ"/><use transform="matrix(0.05,0,0,0.05,12.950000000000001,0)" xlink:href="#bj"/><use transform="matrix(0.05,0,0,0.05,22.950000000000003,0)" xlink:href="#bh"/><use transform="matrix(0.05,0,0,0.05,32.95,0)" xlink:href="#bi"/><use transform="matrix(0.05,0,0,0.05,37.95,0)" xlink:href="#ar"/><use transform="matrix(0.05,0,0,0.05,47.900000000000006,0)" xlink:href="#bo"/><use transform="matrix(0.05,0,0,0.05,56.900000000000006,0)" xlink:href="#bp"/><use transform="matrix(0.05,0,0,0.05,66.9,0)" xlink:href="#bj"/></g><g id="Q"><use transform="matrix(0.05,0,0,0.05,0,0)" xlink:href="#aA"/><use transform="matrix(0.05,0,0,0.05,10,0)" xlink:href="#av"/><use transform="matrix(0.05,0,0,0.05,15.949999999999998,0)" xlink:href="#aH"/><use transform="matrix(0.05,0,0,0.05,25.950000000000003,0)" xlink:href="#aE"/></g><path d="M108 0H70L1-190h34L89-25l56-165h34" id="bq"/><path d="M141-36C126-15 110 5 73 4 37 3 15-17 15-53c-1-64 63-63 125-63 3-35-9-54-41-54-24 1-41 7-42 31l-33-3c5-37 33-52 76-52 45 0 72 20 72 64v82c-1 20 7 32 28 27v20c-31 9-61-2-59-35zM48-53c0 20 12 33 32 33 41-3 63-29 60-74-43 2-92-5-92 41" id="br"/><path d="M96-169c-40 0-48 33-48 73s9 75 48 75c24 0 41-14 43-38l32 2c-6 37-31 61-74 61-59 0-76-41-82-99-10-93 101-131 147-64 4 7 5 14 7 22l-32 3c-4-21-16-35-41-35" id="bs"/><path d="M106-169C34-169 62-67 57 0H25v-261h32l-1 103c12-21 28-36 61-36 89 0 53 116 60 194h-32v-121c2-32-8-49-39-48" id="bt"/><path d="M87 75C49 33 22-17 22-94c0-76 28-126 65-167h31c-38 41-64 92-64 168S80 34 118 75H87" id="bu"/><path d="M155-56V0h-30v-56H8v-25l114-167h33v167h35v25h-35zm-30-156c-27 46-58 90-88 131h88v-131" id="bv"/><path d="M101-251c68 0 85 55 85 127S166 4 100 4C33 4 14-52 14-124c0-73 17-127 87-127zm-1 229c47 0 54-49 54-102s-4-102-53-102c-51 0-55 48-55 102 0 53 5 102 54 102" id="bw"/><path d="M33-261c38 41 65 92 65 168S71 34 33 75H2C39 34 66-17 66-93S39-220 2-261h31" id="bx"/><g id="R"><use transform="matrix(0.05,0,0,0.05,0,0)" xlink:href="#bq"/><use transform="matrix(0.05,0,0,0.05,9,0)" xlink:href="#br"/><use transform="matrix(0.05,0,0,0.05,19,0)" xlink:href="#bl"/><use transform="matrix(0.05,0,0,0.05,24.95,0)" xlink:href="#bs"/><use transform="matrix(0.05,0,0,0.05,33.95,0)" xlink:href="#bt"/><use transform="matrix(0.05,0,0,0.05,43.95,0)" xlink:href="#br"/><use transform="matrix(0.05,0,0,0.05,53.95,0)" xlink:href="#bl"/><use transform="matrix(0.05,0,0,0.05,59.900000000000006,0)" xlink:href="#bu"/><use transform="matrix(0.05,0,0,0.05,65.85000000000001,0)" xlink:href="#bv"/><use transform="matrix(0.05,0,0,0.05,75.85000000000001,0)" xlink:href="#bw"/><use transform="matrix(0.05,0,0,0.05,85.85000000000001,0)" xlink:href="#bw"/><use transform="matrix(0.05,0,0,0.05,95.85000000000001,0)" xlink:href="#bw"/><use transform="matrix(0.05,0,0,0.05,105.85000000000001,0)" xlink:href="#bx"/></g><g id="S"><use transform="matrix(0.05,0,0,0.05,0,0)" xlink:href="#ag"/><use transform="matrix(0.05,0,0,0.05,9,0)" xlink:href="#aH"/><use transform="matrix(0.05,0,0,0.05,19,0)" xlink:href="#aw"/><use transform="matrix(0.05,0,0,0.05,29,0)" xlink:href="#aE"/></g><g id="T"><use transform="matrix(0.05,0,0,0.05,0,0)" xlink:href="#ag"/><use transform="matrix(0.05,0,0,0.05,9,0)" xlink:href="#aH"/><use transform="matrix(0.05,0,0,0.05,19,0)" xlink:href="#aP"/><use transform="matrix(0.05,0,0,0.05,33.95,0)" xlink:href="#aP"/><use transform="matrix(0.05,0,0,0.05,48.900000000000006,0)" xlink:href="#ah"/><use transform="matrix(0.05,0,0,0.05,58.900000000000006,0)" xlink:href="#aw"/><use transform="matrix(0.05,0,0,0.05,68.9,0)" xlink:href="#ax"/></g><g id="U"><use transform="matrix(0.05,0,0,0.05,0,0)" xlink:href="#aA"/><use transform="matrix(0.05,0,0,0.05,10,0)" xlink:href="#ae"/><use transform="matrix(0.05,0,0,0.05,13.949999999999998,0)" xlink:href="#af"/><use transform="matrix(0.05,0,0,0.05,23.95,0)" xlink:href="#ag"/><use transform="matrix(0.05,0,0,0.05,32.95,0)" xlink:href="#ah"/><use transform="matrix(0.05,0,0,0.05,42.95,0)" xlink:href="#aB"/><use transform="matrix(0.05,0,0,0.05,55.900000000000006,0)" xlink:href="#af"/><use transform="matrix(0.05,0,0,0.05,65.9,0)" xlink:href="#ax"/><use transform="matrix(0.05,0,0,0.05,70.9,0)" xlink:href="#ak"/><use transform="matrix(0.05,0,0,0.05,74.85000000000001,0)" xlink:href="#aw"/><use transform="matrix(0.05,0,0,0.05,84.85000000000001,0)" xlink:href="#aI"/></g><g id="V"><use transform="matrix(0.05,0,0,0.05,0,0)" xlink:href="#ae"/><use transform="matrix(0.05,0,0,0.05,3.95,0)" xlink:href="#af"/><use transform="matrix(0.05,0,0,0.05,13.949999999999998,0)" xlink:href="#aw"/><use transform="matrix(0.05,0,0,0.05,23.95,0)" xlink:href="#al"/><use transform="matrix(0.05,0,0,0.05,33.95,0)" xlink:href="#ae"/><use transform="matrix(0.05,0,0,0.05,37.900000000000006,0)" xlink:href="#aH"/><use transform="matrix(0.05,0,0,0.05,47.900000000000006,0)" xlink:href="#av"/><use transform="matrix(0.05,0,0,0.05,53.85,0)" xlink:href="#al"/><use transform="matrix(0.05,0,0,0.05,63.85,0)" xlink:href="#aB"/><use transform="matrix(0.05,0,0,0.05,76.80000000000001,0)" xlink:href="#af"/><use transform="matrix(0.05,0,0,0.05,86.80000000000001,0)" xlink:href="#ax"/><use transform="matrix(0.05,0,0,0.05,91.80000000000001,0)" xlink:href="#ak"/><use transform="matrix(0.05,0,0,0.05,95.75000000000001,0)" xlink:href="#aw"/><use transform="matrix(0.05,0,0,0.05,105.75,0)" xlink:href="#aI"/></g><g id="W"><use transform="matrix(0.05,0,0,0.05,0,0)" xlink:href="#aw"/><use transform="matrix(0.05,0,0,0.05,10,0)" xlink:href="#ah"/><use transform="matrix(0.05,0,0,0.05,20,0)" xlink:href="#ak"/><use transform="matrix(0.05,0,0,0.05,23.95,0)" xlink:href="#aI"/><use transform="matrix(0.05,0,0,0.05,33.95,0)" xlink:href="#aO"/><use transform="matrix(0.05,0,0,0.05,43.95,0)" xlink:href="#aX"/><use transform="matrix(0.05,0,0,0.05,53.95,0)" xlink:href="#aH"/><use transform="matrix(0.05,0,0,0.05,63.95,0)" xlink:href="#av"/><use transform="matrix(0.05,0,0,0.05,69.9,0)" xlink:href="#aB"/><use transform="matrix(0.05,0,0,0.05,82.85000000000001,0)" xlink:href="#af"/><use transform="matrix(0.05,0,0,0.05,92.85000000000001,0)" xlink:href="#ax"/><use transform="matrix(0.05,0,0,0.05,97.85000000000001,0)" xlink:href="#ak"/><use transform="matrix(0.05,0,0,0.05,101.80000000000001,0)" xlink:href="#aw"/><use transform="matrix(0.05,0,0,0.05,111.80000000000001,0)" xlink:href="#aI"/></g><path fill="#333" d="M87-220l-18 92h140l-5 28H64L45 0H11l48-248h178l-5 28H87" id="by"/><path fill="#333" d="M187 0l-14-72H61L19 0h-37l149-248h38L221 0h-34zm-19-99l-22-123L76-99h92" id="bz"/><g id="X"><use transform="matrix(0.05,0,0,0.05,0,0)" xlink:href="#by"/><use transform="matrix(0.05,0,0,0.05,10.950000000000001,0)" xlink:href="#aZ"/><use transform="matrix(0.05,0,0,0.05,20.950000000000003,0)" xlink:href="#bz"/><use transform="matrix(0.05,0,0,0.05,31.6,0)" xlink:href="#ay"/></g><g id="Y"><use transform="matrix(0.05,0,0,0.05,0,0)" xlink:href="#ba"/><use transform="matrix(0.05,0,0,0.05,12.950000000000001,0)" xlink:href="#bb"/><use transform="matrix(0.05,0,0,0.05,26.950000000000003,0)" xlink:href="#am"/><use transform="matrix(0.05,0,0,0.05,39.900000000000006,0)" xlink:href="#aF"/><use transform="matrix(0.05,0,0,0.05,51.900000000000006,0)" xlink:href="#bd"/></g><g id="Z"><use transform="matrix(0.05,0,0,0.05,0,0)" xlink:href="#bf"/><use transform="matrix(0.05,0,0,0.05,14,0)" xlink:href="#bz"/><use transform="matrix(0.05,0,0,0.05,26,0)" xlink:href="#aB"/><use transform="matrix(0.05,0,0,0.05,38.95,0)" xlink:href="#bz"/><use transform="matrix(0.05,0,0,0.05,50.95,0)" xlink:href="#bf"/><use transform="matrix(0.05,0,0,0.05,64.95,0)" xlink:href="#bd"/></g><g id="aa"><use transform="matrix(0.05,0,0,0.05,0,0)" xlink:href="#bz"/><use transform="matrix(0.05,0,0,0.05,12,0)" xlink:href="#ad"/><use transform="matrix(0.05,0,0,0.05,22.65,0)" xlink:href="#bz"/><use transform="matrix(0.05,0,0,0.05,34.65,0)" xlink:href="#aB"/><use transform="matrix(0.05,0,0,0.05,47.25,0)" xlink:href="#ay"/><use transform="matrix(0.05,0,0,0.05,58.2,0)" xlink:href="#be"/><use transform="matrix(0.05,0,0,0.05,73.15,0)" xlink:href="#bd"/><use transform="matrix(0.05,0,0,0.05,85.15,0)" xlink:href="#aW"/><use transform="matrix(0.05,0,0,0.05,98.10000000000001,0)" xlink:href="#ay"/><use transform="matrix(0.05,0,0,0.05,109.05000000000001,0)" xlink:href="#aF"/></g><path fill="#333" d="M138-103L118 0H85l20-103-68-145h35l54 119 98-119h38" id="bA"/><g id="ab"><use transform="matrix(0.05,0,0,0.05,0,0)" xlink:href="#am"/><use transform="matrix(0.05,0,0,0.05,12.950000000000001,0)" xlink:href="#ay"/><use transform="matrix(0.05,0,0,0.05,23.900000000000002,0)" xlink:href="#an"/><use transform="matrix(0.05,0,0,0.05,28.900000000000002,0)" xlink:href="#aZ"/><use transform="matrix(0.05,0,0,0.05,38.900000000000006,0)" xlink:href="#an"/><use transform="matrix(0.05,0,0,0.05,43.900000000000006,0)" xlink:href="#ay"/><use transform="matrix(0.05,0,0,0.05,54.85,0)" xlink:href="#bA"/></g><path fill="#333" d="M125-24c46 0 70-25 89-51l25 16C214-24 183 4 123 4 8 4-5-146 60-208c32-50 158-61 191-5 5 7 9 14 11 22l-32 10c-9-28-33-43-69-43-74 0-108 51-108 125 0 46 24 75 72 75" id="bB"/><g id="ac"><use transform="matrix(0.05,0,0,0.05,0,0)" xlink:href="#bb"/><use transform="matrix(0.05,0,0,0.05,14,0)" xlink:href="#ad"/><use transform="matrix(0.05,0,0,0.05,26,0)" xlink:href="#bd"/><use transform="matrix(0.05,0,0,0.05,38,0)" xlink:href="#aW"/><use transform="matrix(0.05,0,0,0.05,50.95,0)" xlink:href="#bc"/><use transform="matrix(0.05,0,0,0.05,60.95,0)" xlink:href="#aF"/><use transform="matrix(0.05,0,0,0.05,72.95,0)" xlink:href="#ad"/><use transform="matrix(0.05,0,0,0.05,83.60000000000001,0)" xlink:href="#bz"/><use transform="matrix(0.05,0,0,0.05,95.60000000000001,0)" xlink:href="#bB"/><use transform="matrix(0.05,0,0,0.05,108.55000000000001,0)" xlink:href="#bd"/></g></defs></g></svg>